HIERARCHY
ROOT Hips
{
	OFFSET -0.001795 -0.223333 0.028219
	CHANNELS 6 Xposition Yposition Zposition Zrotation Yrotation Xrotation 
	JOINT LeftUpLeg
	{
		OFFSET 0.069520 -0.091406 -0.006815
		CHANNELS 3 Zrotation Yrotation Xrotation
		JOINT LeftLeg
		{
			OFFSET 0.034277 -0.375199 -0.004496
			CHANNELS 3 Zrotation Yrotation Xrotation
			JOINT LeftFoot
			{
				OFFSET -0.013596 -0.397961 -0.043693
				CHANNELS 3 Zrotation Yrotation Xrotation
				JOINT LeftToe
				{
					OFFSET 0.026358 -0.055791 0.119288
					CHANNELS 3 Zrotation Yrotation Xrotation
					End Site
					{
						OFFSET 0.000000 0.000000 0.000000
					}
				}
			}
		}
	}
	JOINT RightUpLeg
	{
		OFFSET -0.067670 -0.090522 -0.004320
		CHANNELS 3 Zrotation Yrotation Xrotation
		JOINT RightLeg
		{
			OFFSET -0.038290 -0.382569 -0.008850
			CHANNELS 3 Zrotation Yrotation Xrotation
			JOINT RightFoot
			{
				OFFSET 0.015774 -0.398415 -0.042312
				CHANNELS 3 Zrotation Yrotation Xrotation
				JOINT RightToe
				{
					OFFSET -0.025372 -0.048144 0.123348
					CHANNELS 3 Zrotation Yrotation Xrotation
					End Site
					{
						OFFSET 0.000000 0.000000 0.000000
					}
				}
			}
		}
	}
	JOINT Spine
	{
		OFFSET -0.002533 0.108963 -0.026696
		CHANNELS 3 Zrotation Yrotation Xrotation
		JOINT Spine1
		{
			OFFSET 0.005487 0.135180 0.001092
			CHANNELS 3 Zrotation Yrotation Xrotation
			JOINT Spine2
			{
				OFFSET 0.001457 0.052922 0.025425
				CHANNELS 3 Zrotation Yrotation Xrotation
				JOINT Neck
				{
					OFFSET -0.002778 0.213870 -0.042857
					CHANNELS 3 Zrotation Yrotation Xrotation
					JOINT Head
					{
						OFFSET 0.005152 0.064970 0.051349
						CHANNELS 3 Zrotation Yrotation Xrotation
						End Site
						{
							OFFSET 0.000000 0.000000 0.000000
						}
					}
				}
				JOINT LeftShoulder
				{
					OFFSET 0.078845 0.121749 -0.034090
					CHANNELS 3 Zrotation Yrotation Xrotation
					JOINT LeftArm
					{
						OFFSET 0.090977 0.030469 -0.008868
						CHANNELS 3 Zrotation Yrotation Xrotation
						JOINT LeftForeArm
						{
							OFFSET 0.259612 -0.012772 -0.027456
							CHANNELS 3 Zrotation Yrotation Xrotation
							JOINT LeftHand
							{
								OFFSET 0.249234 0.008986 -0.001171
								CHANNELS 3 Zrotation Yrotation Xrotation
								End Site
								{
									OFFSET 0.000000 0.000000 0.000000
								}
							}
						}
					}
				}
				JOINT RightShoulder
				{
					OFFSET -0.081759 0.118833 -0.038615
					CHANNELS 3 Zrotation Yrotation Xrotation
					JOINT RightArm
					{
						OFFSET -0.096012 0.032551 -0.009143
						CHANNELS 3 Zrotation Yrotation Xrotation
						JOINT RightForeArm
						{
							OFFSET -0.253742 -0.013329 -0.021401
							CHANNELS 3 Zrotation Yrotation Xrotation
							JOINT RightHand
							{
								OFFSET -0.255298 0.007772 -0.005559
								CHANNELS 3 Zrotation Yrotation Xrotation
								End Site
								{
									OFFSET 0.000000 0.000000 0.000000
								}
							}
						}
					}
				}
			}
		}
	}
}
MOTION
Frames: 15
Frame Time: 0.050000
0.000000 0.938338 0.000000 -1.569260 -1.954479 1.008955 4.804186 -0.060975 -0.258581 -1.652732 0.161038 1.439613 1.370433 4.504602 4.531878 0.000000 0.000000 0.000000 -2.598238 0.210104 -1.748087 1.528088 -0.056875 3.565473 -0.855358 -5.044325 6.621814 0.000000 0.000000 0.000000 -1.411573 -0.173186 6.680895 4.625432 -0.454726 -25.355407 -0.291978 1.972350 29.802378 0.132475 1.815807 -29.790330 0.000000 0.000000 0.000000 -28.292473 2.294069 -3.459584 -50.616345 -4.680837 -6.639114 -4.347561 -25.423895 2.356886 0.000000 0.000000 0.000000 20.250766 3.051420 0.897713 58.554709 5.930120 -5.752707 -2.352444 25.865316 0.861061 0.000000 0.000000 0.000000 
0.000047 0.938306 0.000563 -1.673915 -2.583422 1.381815 4.986139 -0.021531 0.515523 -1.892553 0.223637 -0.403970 1.534896 4.910348 4.926278 0.000000 0.000000 0.000000 -2.616023 0.241773 -2.094829 1.650234 -0.074484 3.371812 -0.584024 -4.534965 6.668587 0.000000 0.000000 0.000000 -1.498047 -0.152810 6.256233 4.781092 -0.468103 -25.710681 -0.270126 2.366403 30.475690 -1.063527 2.505614 -30.856221 0.000000 0.000000 0.000000 -29.233405 3.337947 -4.237734 -50.516806 -4.325834 -6.846147 -3.576503 -25.904324 2.272028 0.000000 0.000000 0.000000 20.052396 3.219022 1.020330 59.261750 5.419139 -6.134043 -3.190367 27.525718 0.785433 0.000000 0.000000 0.000000 
0.000184 0.937633 0.000900 -1.291818 -1.710755 1.503595 4.536517 -0.059839 -0.129550 -1.708128 0.187932 0.259690 1.237064 4.284532 4.607951 0.000000 0.000000 0.000000 -2.880891 0.257790 -2.305022 1.509134 -0.050165 3.752428 -1.057094 -5.340366 6.306435 0.000000 0.000000 0.000000 -1.066590 -0.176920 6.064063 3.473814 -0.177252 -25.445078 -0.283179 0.919864 30.502974 -1.730284 2.732527 -32.121273 0.000000 0.000000 0.000000 -28.720203 3.215255 -3.739847 -50.457576 -5.103462 -6.623779 -3.670903 -25.350086 2.271748 0.000000 0.000000 0.000000 20.318190 3.652147 1.002530 58.840992 5.314774 -6.118277 -3.564325 26.347951 0.598917 0.000000 0.000000 0.000000 
0.000207 0.937258 0.001028 -1.088699 -1.526330 1.647575 4.457353 -0.066646 -0.212988 -1.936830 0.216440 0.075932 1.145863 4.115805 4.599664 0.000000 0.000000 0.000000 -3.176586 0.268197 -2.407394 1.666004 -0.073523 3.710941 -1.168260 -5.509769 6.153453 0.000000 0.000000 0.000000 -1.595657 -0.141263 6.081942 3.960783 -0.234751 -26.207414 -0.509374 0.870516 31.151379 -2.729563 3.271186 -32.527486 0.000000 0.000000 0.000000 -29.527903 3.591395 -4.108359 -49.749407 -4.687207 -6.753762 -4.026137 -26.235149 2.447080 0.000000 0.000000 0.000000 20.074190 3.960394 1.231151 58.911776 4.928630 -6.390708 -3.337819 27.557462 0.705847 0.000000 0.000000 0.000000 
0.000175 0.937718 0.000875 -0.888111 -1.019032 1.453317 4.025470 -0.059119 -0.108701 -1.468446 0.161579 0.091539 0.899871 3.718858 4.735153 0.000000 0.000000 0.000000 -3.275968 0.247579 -2.167591 1.542349 -0.058570 3.765518 -1.363184 -5.926474 6.251971 0.000000 0.000000 0.000000 -1.661157 -0.147356 6.423422 3.938985 -0.251716 -25.791051 -0.739328 0.899235 30.547168 -3.256498 3.605561 -32.866626 0.000000 0.000000 0.000000 -29.308612 3.550653 -4.233872 -49.624039 -4.760387 -6.593563 -4.509487 -26.914811 2.596671 0.000000 0.000000 0.000000 19.938165 3.961668 1.317836 58.976022 4.880900 -6.352536 -3.332630 27.182347 0.701450 0.000000 0.000000 0.000000 
0.000225 0.937986 0.000532 -0.831788 -0.522108 1.401066 3.985128 -0.070481 -0.250115 -1.425591 0.151710 0.258687 0.672477 3.326671 4.776238 0.000000 0.000000 0.000000 -3.442445 0.232194 -1.974150 1.808356 -0.102358 3.601060 -1.526066 -6.294569 6.419996 0.000000 0.000000 0.000000 -1.920760 -0.139160 6.770737 4.062238 -0.238390 -26.348224 -0.845590 0.787951 30.980441 -3.655490 3.846301 -33.049767 0.000000 0.000000 0.000000 -29.540476 3.500341 -4.305001 -49.284524 -4.984246 -6.488564 -5.125623 -27.532764 2.803134 0.000000 0.000000 0.000000 19.789877 4.148825 1.499470 58.635410 4.761948 -6.437862 -3.257527 27.667013 0.747113 0.000000 0.000000 0.000000 
0.000236 0.938635 0.000156 -0.819846 -0.389600 1.372469 3.886246 -0.071938 -0.280637 -1.252312 0.131416 0.277382 0.578124 3.229440 4.980986 0.000000 0.000000 0.000000 -3.433141 0.222199 -1.847732 1.789745 -0.105401 3.408502 -1.529039 -6.376416 6.683048 0.000000 0.000000 0.000000 -1.912953 -0.144496 6.949043 3.872937 -0.216554 -25.979336 -0.888080 0.882539 30.449360 -3.721860 3.907349 -32.905864 0.000000 0.000000 0.000000 -29.426987 3.473564 -4.368230 -49.158533 -5.109464 -6.352650 -5.261677 -28.204439 2.894604 0.000000 0.000000 0.000000 19.772689 4.220065 1.573886 58.516180 4.828131 -6.341553 -3.051932 27.970234 0.804169 0.000000 0.000000 0.000000 
0.000228 0.938981 -0.000048 -0.783750 -0.035490 1.527330 3.973255 -0.088757 -0.482076 -1.416701 0.150306 0.201318 0.386847 2.942897 5.132893 0.000000 0.000000 0.000000 -3.369856 0.214916 -1.767561 1.669785 -0.100959 3.020942 -1.646258 -6.661991 6.888200 0.000000 0.000000 0.000000 -1.944984 -0.140579 6.879798 3.770446 -0.197931 -25.783415 -1.029452 0.867969 30.200886 -3.433168 3.790139 -32.656924 0.000000 0.000000 0.000000 -29.187021 3.175287 -4.232057 -49.056503 -5.095069 -6.298322 -5.925499 -29.280161 3.169091 0.000000 0.000000 0.000000 19.929370 4.172198 1.597772 58.060857 4.820489 -6.285494 -2.831567 28.791741 0.892438 0.000000 0.000000 0.000000 
0.000255 0.939568 -0.000167 -0.734697 -0.017482 1.632423 3.908441 -0.083337 -0.381014 -1.398114 0.157159 -0.214118 0.308457 2.911367 5.440993 0.000000 0.000000 0.000000 -3.486150 0.213023 -1.712255 1.779095 -0.123331 2.692972 -1.599264 -6.642979 7.149785 0.000000 0.000000 0.000000 -2.035885 -0.133118 6.872055 3.807121 -0.201931 -25.859297 -1.165919 1.021056 30.099616 -3.219402 3.707081 -32.534442 0.000000 0.000000 0.000000 -28.980278 3.146602 -4.253749 -49.026975 -5.222018 -6.217988 -6.367232 -29.821347 3.338762 0.000000 0.000000 0.000000 20.045119 4.061718 1.580512 57.925608 4.916466 -6.227567 -2.658019 29.403968 0.972986 0.000000 0.000000 0.000000 
0.000322 0.939887 -0.000325 -0.696195 0.087530 1.746503 3.820716 -0.084552 -0.389715 -1.309246 0.153191 -0.475772 0.226930 2.830279 5.615563 0.000000 0.000000 0.000000 -3.566281 0.218174 -1.770258 1.857916 -0.136910 2.574307 -1.621778 -6.726045 7.297107 0.000000 0.000000 0.000000 -2.037289 -0.130908 6.797947 3.702357 -0.177226 -25.851108 -1.322709 0.898958 30.079646 -2.865601 3.513394 -32.445933 0.000000 0.000000 0.000000 -28.781019 3.024973 -4.121591 -48.990052 -5.260914 -6.203340 -6.592471 -30.451447 3.481313 0.000000 0.000000 0.000000 19.970669 4.031027 1.548396 58.136671 4.892279 -6.244565 -2.580089 30.150887 1.029856 0.000000 0.000000 0.000000 
0.000488 0.940186 -0.000616 -0.760662 -0.019338 1.870602 3.929972 -0.083098 -0.334437 -1.414683 0.171989 -0.826105 0.232154 2.900347 5.795895 0.000000 0.000000 0.000000 -3.630947 0.229432 -1.896707 2.060412 -0.164004 2.484494 -1.541466 -6.617523 7.463564 0.000000 0.000000 0.000000 -1.978718 -0.136537 6.895741 3.765461 -0.175984 -26.114762 -1.336591 0.900691 30.137814 -2.602182 3.370057 -32.665882 0.000000 0.000000 0.000000 -28.807540 2.958335 -4.051530 -49.010206 -5.364633 -6.180648 -6.750526 -30.774356 3.574251 0.000000 0.000000 0.000000 20.129401 3.746801 1.370925 58.045088 4.967283 -6.212648 -2.546941 30.672032 1.067637 0.000000 0.000000 0.000000 
0.000740 0.940479 -0.000903 -0.865082 -0.399667 2.060010 3.911274 -0.087061 -0.433350 -1.273955 0.161317 -0.950584 0.398309 3.227729 5.914459 0.000000 0.000000 0.000000 -3.574483 0.249698 -2.140892 2.068903 -0.164351 2.407315 -1.357571 -6.314545 7.613975 0.000000 0.000000 0.000000 -1.902351 -0.140167 6.890852 3.810607 -0.183996 -26.242575 -1.319965 0.900029 30.122049 -2.185043 3.117992 -32.748553 0.000000 0.000000 0.000000 -28.402749 2.917444 -3.866609 -49.386940 -5.530758 -6.183244 -6.394703 -30.706985 3.492846 0.000000 0.000000 0.000000 20.100352 3.567844 1.196278 58.155202 5.041858 -6.167364 -2.587577 31.198326 1.071769 0.000000 0.000000 0.000000 
0.000981 0.940805 -0.000972 -0.957864 -0.758295 2.166092 4.026813 -0.081194 -0.340807 -1.387299 0.179779 -1.232286 0.521954 3.494910 6.088995 0.000000 0.000000 0.000000 -3.528954 0.262288 -2.283593 2.078864 -0.164662 2.346574 -1.178123 -6.019919 7.756933 0.000000 0.000000 0.000000 -1.690402 -0.153166 6.836491 3.754106 -0.171611 -26.284362 -1.286348 0.868869 30.245005 -1.806654 2.882086 -32.843857 0.000000 0.000000 0.000000 -28.288549 2.737579 -3.615168 -49.625617 -5.545705 -6.250138 -5.883234 -30.519503 3.356129 0.000000 0.000000 0.000000 20.256409 3.393558 1.022012 58.125089 4.998672 -6.195353 -2.734502 31.674316 1.046398 0.000000 0.000000 0.000000 
0.001213 0.941136 -0.000710 -0.946392 -1.217322 2.287304 4.183683 -0.078924 -0.319671 -1.794818 0.224166 -1.355191 0.676839 3.818232 6.289698 0.000000 0.000000 0.000000 -3.542459 0.278530 -2.461029 1.973612 -0.149133 2.332805 -0.973675 -5.664931 7.836144 0.000000 0.000000 0.000000 -1.739041 -0.146062 6.786614 3.899867 -0.208207 -26.279066 -1.325773 0.833188 30.192671 -1.235585 2.526969 -32.596406 0.000000 0.000000 0.000000 -28.028057 2.631190 -3.375708 -50.077513 -5.523003 -6.336230 -5.140904 -30.246073 3.154164 0.000000 0.000000 0.000000 20.078432 3.397233 0.929039 58.312351 4.837438 -6.264007 -2.686992 32.164496 1.059420 0.000000 0.000000 0.000000 
0.001364 0.941243 -0.000130 -0.956787 -1.576039 2.307583 4.129010 -0.064268 -0.122809 -1.760081 0.226080 -1.577865 0.817670 4.084177 6.382219 0.000000 0.000000 0.000000 -3.513500 0.269313 -2.297411 1.859574 -0.141816 1.975500 -0.797812 -5.353599 7.893122 0.000000 0.000000 0.000000 -1.637384 -0.149520 6.661255 3.929338 -0.221589 -26.273087 -1.319821 0.632444 30.291484 -0.937409 2.297533 -32.522877 0.000000 0.000000 0.000000 -27.911705 2.665148 -3.206173 -50.386041 -5.341941 -6.497944 -4.523667 -29.858546 2.982102 0.000000 0.000000 0.000000 19.943398 3.436068 0.831752 58.437398 4.532104 -6.415444 -2.695946 32.496360 1.040006 0.000000 0.000000 0.000000 
